<svg width="38" height="38" viewBox="0 0 38 38" fill="none" xmlns="http://www.w3.org/2000/svg">
<rect y="0.000976562" width="38" height="38" rx="6" fill="#4B2995"/>
<path d="M16.25 26.5635C16.25 26.8354 16.1694 27.1013 16.0183 27.3274C15.8672 27.5535 15.6524 27.7297 15.4012 27.8338C15.1499 27.9379 14.8735 27.9651 14.6068 27.9121C14.34 27.859 14.095 27.728 13.9027 27.5357C13.7104 27.3435 13.5795 27.0984 13.5264 26.8317C13.4734 26.565 13.5006 26.2885 13.6047 26.0373C13.7087 25.786 13.885 25.5713 14.1111 25.4202C14.3372 25.2691 14.6031 25.1885 14.875 25.1885C15.2397 25.1885 15.5894 25.3333 15.8473 25.5912C16.1051 25.8491 16.25 26.1988 16.25 26.5635ZM23.8125 25.1885C23.5406 25.1885 23.2747 25.2691 23.0486 25.4202C22.8225 25.5713 22.6462 25.786 22.5422 26.0373C22.4381 26.2885 22.4109 26.565 22.4639 26.8317C22.517 27.0984 22.6479 27.3435 22.8402 27.5357C23.0325 27.728 23.2775 27.859 23.5443 27.9121C23.811 27.9651 24.0874 27.9379 24.3387 27.8338C24.5899 27.7297 24.8047 27.5535 24.9558 27.3274C25.1069 27.1013 25.1875 26.8354 25.1875 26.5635C25.1875 26.1988 25.0426 25.8491 24.7848 25.5912C24.5269 25.3333 24.1772 25.1885 23.8125 25.1885ZM27.6023 13.776C27.5378 13.6911 27.4547 13.6221 27.3594 13.5745C27.264 13.5268 27.159 13.5016 27.0523 13.501H12.1508L11.4547 11.0604C11.3712 10.7736 11.1972 10.5216 10.9587 10.3419C10.7201 10.1622 10.4299 10.0646 10.1312 10.0635H8.6875C8.50516 10.0635 8.3303 10.1359 8.20136 10.2648C8.07243 10.3938 8 10.5686 8 10.751C8 10.9333 8.07243 11.1082 8.20136 11.2371C8.3303 11.366 8.50516 11.4385 8.6875 11.4385H10.1312L10.9734 14.3689V14.3861L13.2422 22.3182C13.3668 22.7486 13.6276 23.1271 13.9855 23.3967C14.3435 23.6663 14.7792 23.8125 15.2273 23.8135H23.4602C23.9083 23.8125 24.344 23.6663 24.702 23.3967C25.0599 23.1271 25.3207 22.7486 25.4453 22.3182L27.7141 14.3775C27.7431 14.2754 27.7482 14.168 27.7288 14.0636C27.7094 13.9593 27.6661 13.8608 27.6023 13.776Z" fill="#F3F2F2"/>
</svg>
